<svg width="239" height="84" viewBox="0 0 239 84" fill="none" xmlns="http://www.w3.org/2000/svg">
<g clip-path="url(#clip0_2656_8178)">
<path d="M98.1792 32.1085H94.3726C94.7302 31.0863 96.3244 25.5364 96.3244 25.5364H96.3486C96.4638 26.1377 98.0277 31.7718 98.1853 32.1085H98.1792ZM102.841 38.2958L97.8883 22.8667H94.906L89.8203 38.2958H92.4874L93.7421 34.2491H98.7611L100.016 38.2958H102.841Z" fill="#1d1d1b"/>
<path d="M115.958 38.2961V30.5636C115.958 29.2648 115.667 28.886 114.788 28.886C113.909 28.886 113.163 29.4392 112.375 30.1667V38.2961H110.017V30.6297C110.017 29.3309 109.727 28.91 108.787 28.91C108.09 28.91 107.284 29.2648 106.459 30.0104V38.2961H104.065V30.281C104.065 28.892 103.932 28.0442 103.659 27.4369L105.902 26.8115C106.126 27.1663 106.259 27.6353 106.308 28.2666C107.205 27.3527 108.254 26.8356 109.308 26.8356C110.363 26.8356 111.193 27.1723 112.024 28.4891C113.127 27.3707 114.212 26.8356 115.43 26.8356C117.297 26.8356 118.401 27.7976 118.401 30.1246V38.2961H115.97H115.958Z" fill="#1d1d1b"/>
<path d="M126.523 31.5496H122.347C122.347 29.7577 123.105 28.6874 124.493 28.6874C125.723 28.6874 126.523 29.7577 126.523 31.5496ZM129.088 33.3534V32.8423C129.088 30.2387 128.59 28.8798 127.602 27.9959C126.639 27.1241 125.608 26.8354 124.493 26.8354C123.062 26.8354 121.947 27.3045 121.032 28.3507C120.05 29.4511 119.631 30.7378 119.631 32.71C119.631 36.2997 121.638 38.5906 124.826 38.5906C126.348 38.5906 127.718 38.0976 128.906 37.0994L127.936 35.6143C127.081 36.3418 126.166 36.7206 125.111 36.7206C122.899 36.7206 122.317 35.0851 122.317 33.5338V33.3594H129.081L129.088 33.3534Z" fill="#1d1d1b"/>
<path d="M135.737 29.1805C135.488 29.0903 135.312 29.0242 135.04 29.0242C134.009 29.0242 133.136 29.7818 132.912 30.6897V38.296H130.445V30.353C130.445 28.934 130.287 28.026 130.045 27.3405L132.306 26.7633C132.573 27.2744 132.73 27.9118 132.73 28.5311C133.627 27.3165 134.524 26.7393 135.622 26.7393C135.979 26.7393 136.203 26.7813 136.494 26.9136L135.731 29.1685L135.737 29.1805Z" fill="#1d1d1b"/>
<path d="M137.131 23.7628C137.131 22.8488 137.852 22.1152 138.774 22.1152C139.695 22.1152 140.392 22.8248 140.392 23.7628C140.392 24.7008 139.652 25.3862 138.731 25.3862C137.81 25.3862 137.137 24.6527 137.137 23.7628H137.131ZM137.495 38.2959V27.2262L139.992 26.7812V38.2899H137.495V38.2959Z" fill="#1d1d1b"/>
<path d="M146.121 38.5903C143.035 38.5903 141.32 36.4317 141.32 32.806C141.32 28.7172 143.769 26.751 146.297 26.751C147.527 26.751 148.424 27.0396 149.43 27.9776L148.2 29.6071C147.527 29.0058 146.945 28.7412 146.297 28.7412C145.515 28.7412 144.86 29.1441 144.502 29.8777C144.169 30.5692 144.03 31.6094 144.03 33.0104C144.03 34.5437 144.278 35.5238 144.793 36.077C145.151 36.4798 145.69 36.7203 146.297 36.7203C147.078 36.7203 147.842 36.3415 148.582 35.608L149.746 37.0991C148.715 38.1274 147.642 38.5903 146.115 38.5903H146.121Z" fill="#1d1d1b"/>
<path d="M156.576 33.0044L156.533 35.6741C156.043 36.3836 155.285 36.8526 154.503 36.8526C153.521 36.8526 152.939 36.1852 152.939 35.1209C152.939 33.6959 153.678 32.9863 156.133 32.9863C156.309 32.9863 156.582 33.0104 156.582 33.0104L156.576 33.0044ZM159.964 37.2074C159.091 36.6061 158.958 36.1191 158.976 34.6038L159.019 31.3809C159.043 29.7153 159.043 29.1201 158.837 28.627C158.34 27.4004 157.152 26.751 155.382 26.751C153.612 26.751 152.278 27.22 150.587 28.2903L151.678 30.046C151.678 30.046 153.418 28.7593 155.048 28.7593C156.388 28.7593 156.612 29.4447 156.612 30.7375V31.3388H155.855C152.236 31.3388 150.278 32.6496 150.278 35.2472C150.278 37.2014 151.436 38.6324 154.024 38.6324C155.23 38.6324 156.212 38.2777 157.134 37.2495C157.4 37.965 157.988 38.5002 158.685 38.7647L159.964 37.2074Z" fill="#1d1d1b"/>
<path d="M130.784 55.2524L130.742 57.9221C130.251 58.6317 129.493 59.1007 128.711 59.1007C127.729 59.1007 127.147 58.4332 127.147 57.369C127.147 55.9439 127.887 55.2344 130.342 55.2344C130.518 55.2344 130.79 55.2584 130.79 55.2584L130.784 55.2524ZM134.173 59.4554C133.3 58.8541 133.167 58.3671 133.185 56.8519L133.227 53.6289C133.251 51.9634 133.251 51.3621 133.045 50.875C132.548 49.6484 131.36 48.999 129.59 48.999C127.82 48.999 126.487 49.468 124.796 50.5383L125.887 52.2941C125.887 52.2941 127.626 51.0073 129.257 51.0073C130.597 51.0073 130.821 51.6928 130.821 52.9856V53.5869H130.063C126.444 53.5869 124.486 54.8977 124.486 57.5012C124.486 59.4554 125.644 60.8865 128.233 60.8865C129.439 60.8865 130.421 60.5317 131.342 59.5035C131.609 60.2191 132.197 60.7542 132.894 61.0188L134.173 59.4614V59.4554Z" fill="#1d1d1b"/>
<path d="M167.372 38.2963V30.8764C167.372 29.3551 167.015 28.9342 166.075 28.9342C165.36 28.9342 164.33 29.4633 163.59 30.1909V38.2963H161.171V30.0766C161.171 28.9101 161.062 28.2127 160.747 27.4129L162.99 26.7876C163.257 27.2987 163.39 27.7918 163.39 28.393C164.602 27.3648 165.651 26.8297 166.863 26.8297C168.615 26.8297 169.827 27.8819 169.827 29.9444V38.2963H167.379H167.372Z" fill="#1d1d1b"/>
<path d="M184.424 38.5486C182.363 38.5486 180.726 37.7669 179.52 36.3178C178.356 34.9168 177.756 33.0528 177.756 30.8341C177.756 28.9881 178.089 27.4608 178.786 26.1681C179.95 23.9673 182.072 22.6265 184.496 22.6265C186 22.6265 187.43 23.0714 188.351 23.8351L187.163 25.5307C186.333 24.9294 185.484 24.6648 184.521 24.6648C183.199 24.6648 182.102 25.3323 181.429 26.5108C180.89 27.4428 180.623 28.7295 180.623 30.5514C180.623 32.3734 180.823 33.5038 181.229 34.3696C181.902 35.8368 183.175 36.5463 184.678 36.5463C185.775 36.5463 186.581 36.2577 187.454 35.5662L188.667 37.1897C187.454 38.1036 186.09 38.5546 184.43 38.5546L184.424 38.5486Z" fill="#1d1d1b"/>
<path d="M195.11 29.1805C194.862 29.0903 194.686 29.0242 194.413 29.0242C193.383 29.0242 192.51 29.7818 192.286 30.6897V38.296H189.818V30.353C189.818 28.934 189.661 28.026 189.412 27.3405L191.673 26.7633C191.94 27.2744 192.098 27.9118 192.098 28.5311C192.995 27.3165 193.892 26.7393 194.989 26.7393C195.347 26.7393 195.571 26.7813 195.862 26.9136L195.098 29.1685L195.11 29.1805Z" fill="#1d1d1b"/>
<path d="M203.16 38.5606C202.22 41.2724 201.414 42.6253 198.747 43.1183L197.941 41.543C199.486 41.1221 200.359 40.4787 201.008 38.3201H200.226C199.911 37.0513 199.486 35.8307 199.153 34.8326L196.577 27.2564L199.086 26.8354L201.171 33.6781C201.371 34.3696 201.802 36.2095 201.802 36.2095C201.802 36.2095 202.226 34.544 202.65 33.167L204.536 27.076H207.178L203.166 38.5666L203.16 38.5606Z" fill="#1d1d1b"/>
<path d="M211.379 38.5907C209.978 38.5907 208.487 38.1457 207.038 37.34L207.911 35.5843C208.911 36.1615 210.294 36.7568 211.585 36.7568C212.67 36.7568 213.439 36.1134 213.439 35.1814C213.439 34.3155 212.876 33.8766 211.585 33.606L210.209 33.3174C208.517 32.9626 207.511 31.8082 207.511 30.2388C207.511 28.1283 209.202 26.6611 211.718 26.6611C213.276 26.6611 214.518 27.1301 215.482 27.6412L214.67 29.3309C213.615 28.7777 212.779 28.5131 211.876 28.5131C210.815 28.5131 210.136 29.0903 210.136 29.9562C210.136 30.6417 210.518 30.9964 211.676 31.285L213.1 31.6398C215.397 32.217 216.004 33.4557 216.004 34.7665C216.004 37.0273 214.137 38.5907 211.385 38.5907H211.379Z" fill="#1d1d1b"/>
<path d="M220.09 27.0819H222.799L222.15 28.7715H220.065V35.061C220.065 36.456 220.38 36.8528 221.453 36.8528C221.787 36.8528 222.078 36.7867 222.508 36.6303L222.823 38.0975C222.084 38.4342 221.369 38.5905 220.605 38.5905C218.404 38.5905 217.641 37.2978 217.641 35.6983V28.7715H216.386V27.0819H217.641C217.641 26.1258 217.641 25.1457 217.756 24.3039L220.296 23.7026C220.187 24.6166 220.096 25.9695 220.096 27.0819H220.09Z" fill="#1d1d1b"/>
<path d="M229.733 33.0049L229.691 35.6746C229.2 36.3841 228.436 36.8531 227.654 36.8531C226.672 36.8531 226.09 36.1857 226.09 35.1214C226.09 33.6963 226.83 32.9868 229.285 32.9868C229.461 32.9868 229.733 33.0109 229.733 33.0109V33.0049ZM233.122 37.2079C232.249 36.6066 232.116 36.1195 232.134 34.6043L232.176 31.3814C232.201 29.7158 232.201 29.1205 231.994 28.6275C231.497 27.4009 230.309 26.7515 228.539 26.7515C226.769 26.7515 225.436 27.2205 223.745 28.2908L224.836 30.0465C224.836 30.0465 226.575 28.7598 228.206 28.7598C229.546 28.7598 229.77 29.4452 229.77 30.738V31.3393H229.012C225.393 31.3393 223.435 32.6501 223.435 35.2477C223.435 37.2019 224.593 38.6329 227.182 38.6329C228.388 38.6329 229.37 38.2782 230.291 37.25C230.564 37.9655 231.146 38.5006 231.843 38.7652L233.122 37.2079Z" fill="#1d1d1b"/>
<path d="M236.698 38.5485C234.201 38.5485 234.201 36.3177 234.201 35.3617V25.7832C234.201 24.2499 234.134 23.4261 233.977 22.4941L236.517 21.9409C236.698 22.6324 236.717 23.5644 236.717 25.0315V34.568C236.717 36.0772 236.783 36.3237 236.965 36.5883C237.099 36.7867 237.48 36.901 237.771 36.7687L238.171 38.2839C237.723 38.4643 237.25 38.5545 236.692 38.5545L236.698 38.5485Z" fill="#1d1d1b"/>
<path d="M95.6208 60.8142C93.8387 60.8142 92.0505 60.3452 90.5291 59.4312L91.511 57.471C92.8931 58.2708 94.1236 58.7398 95.7056 58.7398C97.6271 58.7398 98.7788 57.8318 98.7788 56.2985C98.7788 55.1681 98.0575 54.4526 96.4512 54.0136L94.7782 53.5446C93.3598 53.1418 92.3536 52.5705 91.7777 51.6987C91.3534 51.0793 91.1291 50.3458 91.1291 49.4559C91.1291 46.7441 93.2749 44.8921 96.4088 44.8921C98.1969 44.8921 99.9669 45.4032 101.331 46.3652L100.167 48.1691C98.7364 47.3273 97.7423 46.9906 96.4997 46.9906C94.9661 46.9906 93.9478 47.8144 93.9478 49.0771C93.9478 50.0331 94.4873 50.5201 96.0269 50.9651L97.8817 51.5002C100.125 52.1436 101.688 53.5687 101.688 55.8776C101.688 58.4331 99.6093 60.8202 95.6208 60.8202V60.8142Z" fill="#1d1d1b"/>
<path d="M110.654 60.8803C110.157 60.5256 109.866 60.1227 109.666 59.4733C108.835 60.4113 107.75 60.8563 106.465 60.8563C105.18 60.8563 104.204 60.4113 103.647 59.7439C103.198 59.2087 103.016 58.4752 103.016 57.0742V49.4498L105.447 49.0049V56.539C105.447 57.94 105.647 58.9622 107.09 58.9622C107.914 58.9622 108.908 58.2948 109.29 57.4951V49.4498L111.672 49.0049V57.471C111.672 59.1606 112.369 59.7198 112.369 59.7198L110.66 60.8803H110.654Z" fill="#1d1d1b"/>
<path d="M117.837 50.8749C119.128 50.8749 119.771 51.5363 119.771 52.793C119.771 54.0497 119.104 54.6871 117.837 54.6871C116.637 54.6871 115.903 54.0918 115.903 52.817C115.903 51.5423 116.594 50.8749 117.837 50.8749ZM123.116 49.0049C122.553 49.3957 121.941 49.6002 121.292 49.6002C120.371 49.6002 119.461 49.0229 117.861 49.0229C115.164 49.0229 113.345 50.5382 113.345 52.817C113.345 54.4045 114.224 55.4868 115.927 55.9798C114.715 56.3586 113.776 56.8036 113.776 57.91C113.776 59.0163 114.448 59.6176 117.485 59.6176C119.577 59.6176 120.601 59.9483 120.601 61.175C120.601 62.2212 119.667 62.9307 117.934 62.9307C116.358 62.9307 115.467 62.3535 115.467 61.3072C115.467 60.9525 115.649 60.5075 115.649 60.5075H113.309C113.309 60.5075 113.085 61.175 113.085 61.7041C113.085 63.8146 115.218 64.7767 118.14 64.7767C121.062 64.7767 123.171 63.4839 123.171 61.0848C123.171 58.6856 121.213 57.8859 119.407 57.8859C116.758 57.8859 116.606 57.8438 116.606 57.4169C116.606 57.0621 117.316 56.6412 118.122 56.3526C120.771 56.3526 122.413 54.8614 122.413 52.9253C122.413 51.7167 121.674 50.9651 121.674 50.9651C121.674 50.9651 122.013 51.0974 122.553 51.0974C123.22 51.0974 123.747 50.947 124.286 50.5502L123.141 49.0049H123.116Z" fill="#1d1d1b"/>
<path d="M140.774 51.404C140.526 51.3138 140.35 51.2476 140.077 51.2476C139.047 51.2476 138.174 52.0053 137.95 52.9132V60.5195H135.483V52.5825C135.483 51.1574 135.325 50.2555 135.083 49.57L137.344 48.9928C137.61 49.5039 137.768 50.1413 137.768 50.7606C138.665 49.546 139.562 48.9688 140.659 48.9688C141.017 48.9688 141.241 49.0108 141.532 49.1431L140.768 51.398L140.774 51.404Z" fill="#1d1d1b"/>
<path d="M154.728 60.7722C152.667 60.7722 151.031 59.9905 149.824 58.5414C148.66 57.1404 148.06 55.2764 148.06 53.0577C148.06 51.2117 148.394 49.6845 149.091 48.3917C150.255 46.191 152.376 44.8501 154.801 44.8501C156.304 44.8501 157.735 45.2951 158.656 46.0587L157.468 47.7543C156.637 47.153 155.789 46.8885 154.825 46.8885C153.504 46.8885 152.407 47.5559 151.734 48.7344C151.194 49.6664 150.927 50.9532 150.927 52.7751C150.927 54.597 151.128 55.7274 151.534 56.5933C152.206 58.0604 153.485 58.7699 154.983 58.7699C156.08 58.7699 156.886 58.4813 157.759 57.7898L158.971 59.4133C157.759 60.3273 156.395 60.7782 154.734 60.7782L154.728 60.7722Z" fill="#1d1d1b"/>
<path d="M164.202 50.9111C165.632 50.9111 166.523 51.8611 166.523 55.0179C166.523 57.8199 165.717 58.9924 164.269 58.9924C162.82 58.9924 161.971 58.0423 161.971 54.8014C161.971 52.0836 162.638 50.9171 164.202 50.9171V50.9111ZM164.178 49.0591C161.189 49.0591 159.25 51.374 159.25 54.9457C159.25 58.5174 161.165 60.8143 164.22 60.8143C167.275 60.8143 169.215 58.5655 169.215 54.9697C169.215 51.374 167.39 49.0591 164.178 49.0591Z" fill="#1d1d1b"/>
<path d="M182.49 60.5258V52.7932C182.49 51.4884 182.199 51.1156 181.32 51.1156C180.441 51.1156 179.696 51.6688 178.908 52.3964V60.5258H176.55V52.8594C176.55 51.5606 176.259 51.1397 175.319 51.1397C174.622 51.1397 173.816 51.4944 172.991 52.24V60.5198H170.591V52.5046C170.591 51.1156 170.458 50.2678 170.185 49.6605L172.428 49.0352C172.652 49.3899 172.785 49.8589 172.834 50.4903C173.731 49.5763 174.78 49.0592 175.834 49.0592C176.889 49.0592 177.719 49.3959 178.55 50.7127C179.653 49.5944 180.738 49.0592 181.956 49.0592C183.823 49.0592 184.927 50.0213 184.927 52.3483V60.5198H182.496L182.49 60.5258Z" fill="#1d1d1b"/>
<path d="M191.394 51.0915C193.007 51.0915 193.498 52.4384 193.498 54.9278C193.498 57.5734 192.758 58.788 191.103 58.788C190.364 58.788 189.582 58.3671 189 57.7959V52.234C189.673 51.4824 190.497 51.0855 191.394 51.0855V51.0915ZM196.128 54.6692C196.128 50.7789 194.146 49.0592 191.867 49.0592C190.679 49.0592 189.564 49.5282 188.842 50.4001C188.818 49.7086 188.776 49.3959 188.661 49.0171L186.4 49.42C186.557 50.2437 186.624 50.827 186.624 52.222V65.294L189 64.6927V60.9346C189 60.3093 188.958 59.8222 188.958 59.8222C189.74 60.4235 190.679 60.7362 191.643 60.7362C194.522 60.7362 196.128 58.3792 196.128 54.6752V54.6692Z" fill="#1d1d1b"/>
<path d="M203.232 55.2285L203.19 57.8982C202.699 58.6077 201.941 59.0767 201.153 59.0767C200.171 59.0767 199.589 58.4093 199.589 57.345C199.589 55.92 200.329 55.2105 202.784 55.2105C202.96 55.2105 203.232 55.2345 203.232 55.2345V55.2285ZM206.627 59.4315C205.754 58.8302 205.621 58.3432 205.639 56.8279L205.681 53.605C205.705 51.9395 205.705 51.3382 205.499 50.8511C205.002 49.6245 203.814 48.9751 202.044 48.9751C200.274 48.9751 198.941 49.4441 197.25 50.5144L198.341 52.2702C198.341 52.2702 200.08 50.9834 201.711 50.9834C203.05 50.9834 203.275 51.6749 203.275 52.9616V53.5629H202.517C198.898 53.5629 196.94 54.8737 196.94 57.4773C196.94 59.4315 198.098 60.8626 200.686 60.8626C201.893 60.8626 202.875 60.5078 203.796 59.4796C204.069 60.1951 204.651 60.7303 205.348 60.9949L206.627 59.4375V59.4315Z" fill="#1d1d1b"/>
<path d="M214.034 60.5258V53.1059C214.034 51.5846 213.676 51.1637 212.737 51.1637C212.022 51.1637 210.991 51.6928 210.252 52.4204V60.5258H207.833V52.3061C207.833 51.1396 207.724 50.4421 207.409 49.6424L209.651 49.0171C209.918 49.5282 210.052 50.0212 210.052 50.6225C211.264 49.5943 212.312 49.0592 213.525 49.0592C215.277 49.0592 216.489 50.1114 216.489 52.1739V60.5197H214.04L214.034 60.5258Z" fill="#1d1d1b"/>
<path d="M223.957 60.7902C223.017 63.502 222.211 64.8549 219.544 65.348L218.738 63.7726C220.283 63.3517 221.156 62.7083 221.805 60.5497H221.023C220.708 59.281 220.283 58.0604 219.95 57.0622L217.374 49.48L219.883 49.0591L221.969 55.9017C222.169 56.5872 222.599 58.4332 222.599 58.4332C222.599 58.4332 223.023 56.7676 223.448 55.3907L225.327 49.2996H227.97L223.957 60.7902Z" fill="#1d1d1b"/>
<path d="M0 41.6692C0 19.4997 18.118 1.5332 40.461 1.5332C62.8039 1.5332 80.922 19.5057 80.922 41.6692C80.922 63.8327 62.8039 81.8052 40.461 81.8052C18.118 81.8052 0 63.8387 0 41.6692Z" fill="#3A569B"/>
<path d="M2.7948 41.6694C2.7948 21.0332 19.6581 4.29932 40.4614 4.29932C61.2647 4.29932 78.134 21.0272 78.134 41.6694C78.134 62.3116 61.2708 79.0395 40.4614 79.0395C19.652 79.0395 2.7948 62.3116 2.7948 41.6694Z" fill="white"/>
<path d="M29.1561 58.6977C29.1561 44.7238 40.5761 33.3955 54.6632 33.3955C68.7503 33.3955 80.1703 44.7238 80.1703 58.6977C80.1703 72.6717 68.7503 83.9999 54.6632 83.9999C40.5761 83.9999 29.1561 72.6717 29.1561 58.6977Z" fill="#3A569B"/>
<path d="M31.7023 58.6977C31.7023 46.1188 41.9828 35.9209 54.6636 35.9209C67.3444 35.9209 77.6248 46.1188 77.6248 58.6977C77.6248 71.2767 67.3444 81.4745 54.6636 81.4745C41.9828 81.4745 31.7023 71.2767 31.7023 58.6977Z" fill="white"/>
<path d="M32.9931 58.6977C32.9931 46.8283 42.6977 37.2017 54.6632 37.2017C66.6288 37.2017 76.3333 46.8283 76.3333 58.6977C76.3333 70.5672 66.6288 80.1938 54.6632 80.1938C42.6977 80.1938 32.9931 70.5672 32.9931 58.6977Z" fill="#BA333D"/>
<path d="M52.3958 36.0176C51.1895 36.3302 49.1528 35.8913 48.8982 37.5328C56.0812 35.7049 63.6521 37.3464 68.9923 42.0124C75.2236 47.3097 78.0241 55.3189 76.1147 63.6468C74.4599 71.5296 66.7677 78.5347 58.821 79.7913C50.0439 81.2405 41.9093 77.9634 36.8236 70.8983C32.3744 64.9095 31.7379 55.824 34.9809 49.0775L33.8352 49.4563C32.1198 53.491 31.4167 58.5358 32.435 63.0815C33.8959 70.7119 40.1938 77.6508 47.6314 79.9838C56.6571 82.8218 66.3253 79.9176 72.2353 73.0449C78.0847 66.551 79.1637 55.824 75.0357 48.2598C70.7138 39.9981 61.8094 35.0795 52.4018 36.0236L52.3958 36.0176Z" fill="white"/>
<path d="M54.8269 58.0122L63.6647 61.1689C66.3378 61.9266 70.0839 63.4418 71.0416 63.5019C72.2782 63.5861 73.4662 63.3757 74.4118 62.3655C75.2362 61.4816 75.6848 59.9062 75.6181 58.1385C75.6787 56.3105 75.0483 54.6089 73.836 53.5326C73.1025 52.8772 72.4055 52.775 71.4174 52.775C70.781 52.775 69.1261 53.3402 67.538 53.7851L58.1911 56.7495L67.0288 52.775C68.0472 52.318 68.5927 51.9752 69.4474 51.2597C70.0778 50.7306 70.5203 50.466 70.9083 49.7445C71.1992 49.2033 71.2962 48.8425 71.3507 48.2292C71.4477 47.195 71.1931 46.5697 70.7143 45.6437C70.3445 44.9281 70.0111 44.5794 69.4413 44.0022C68.7443 43.2987 68.32 42.8778 67.4047 42.4869C66.5682 42.1322 66.0226 41.9758 65.1134 42.048C64.3072 42.1081 63.8829 42.1622 63.1434 42.6793C62.5069 43.1183 61.8401 43.9661 61.3613 44.8259C59.3913 48.3555 58.3123 50.5622 56.4635 54.2842" stroke="#3A569B" stroke-width="0.42" stroke-miterlimit="3.86"/>
<path d="M56.5484 54.1041L59.4701 45.7762C59.761 45.0907 59.8944 44.6758 60.0398 43.9483C60.1671 43.341 60.2338 42.9922 60.2277 42.3729C60.2277 41.8799 60.2277 41.5912 60.1005 41.1102C59.9489 40.533 59.658 39.9738 59.4337 39.7212C59.0336 39.2703 58.6336 39.0237 58.0335 38.7111C57.597 38.4826 57.397 38.3623 56.8575 38.2361C56.2029 38.0857 55.6937 38.0917 54.9481 38.0797C54.2813 38.0677 53.8873 38.0076 53.2327 38.1398C52.6084 38.2661 52.2628 38.4044 51.7052 38.7051C51.2809 38.9335 51.0384 39.0718 50.6868 39.3965C50.3292 39.7333 50.1655 39.9798 49.9231 40.4067C49.4988 41.1463 49.2442 41.6393 49.2866 42.4872C49.3472 43.6837 49.6988 44.4413 50.111 45.5778L53.0387 54.2844C51.196 50.5625 50.111 48.3557 48.141 44.8262C47.6621 43.9663 47.2802 43.0584 46.4559 42.5894C45.6739 42.1444 45.2193 42.0903 44.3889 42.0542C43.4796 42.0182 42.9341 42.1384 42.0976 42.4932C41.1884 42.884 40.758 43.3049 40.0609 44.0084C39.4911 44.5857 39.1577 44.9284 38.788 45.6499C38.3091 46.5759 38.0545 47.2013 38.1515 48.2355C38.2061 48.8488 38.303 49.2096 38.594 49.7507C38.9819 50.4723 39.4305 50.7368 40.0548 51.266C40.9035 51.9815 41.4551 52.3242 42.4734 52.7812L51.3112 56.7557L41.9642 53.7914C40.3761 53.3524 38.7213 52.7812 38.0848 52.7812C37.0968 52.7812 36.4058 52.8834 35.6663 53.5388C34.46 54.6091 33.8236 56.3168 33.8842 58.1447C33.8236 59.9125 34.266 61.4879 35.0904 62.3718C36.036 63.3819 37.2241 63.5864 38.4607 63.5082C39.4123 63.4421 43.1644 61.9328 45.8376 61.1752L54.8026 58.0184L63.6404 61.1752C66.3136 61.9328 70.0596 63.4481 71.0173 63.5082C72.2539 63.5924 73.442 63.3819 74.3876 62.3718C75.2119 61.4879 75.6605 59.9125 75.5938 58.1447C75.6544 56.3168 75.024 54.6151 73.8117 53.5388C73.0783 52.8834 72.3812 52.7812 71.3932 52.7812C70.7567 52.7812 69.1019 53.3464 67.5138 53.7914L58.1668 56.7557L67.0046 52.7812C68.0047 52.3002 68.5503 51.9575 69.4231 51.266C70.102 50.7248 70.5567 50.4542 71.0355 49.7387C71.3022 49.3418 71.4356 48.927 71.472 48.3076C71.4901 47.9709 71.2113 46.606 70.6961 45.656C70.3081 44.9464 69.9929 44.5917 69.4231 44.0144C68.7261 43.3109 68.3018 42.89 67.3865 42.4992C66.55 42.1444 66.0044 41.9881 65.0952 42.0602C64.289 42.1204 63.8647 42.1745 63.1252 42.6916C62.4887 43.1305 61.8219 43.9784 61.3431 44.8382C59.3731 48.3678 58.3547 50.3881 56.512 54.1101L56.5484 54.1041Z" fill="#3A569B" stroke="#3A569B" stroke-width="0.42" stroke-miterlimit="3.86"/>
<path d="M54.2389 40.9959C53.4145 40.3645 52.7114 39.4205 52.1416 38.5366C52.7114 38.0977 53.4145 38.1578 54.1116 38.0977L54.2389 41.0019V40.9959Z" fill="#25974F"/>
<path d="M42.922 45.5414C42.734 45.4813 42.5401 45.2888 42.4128 45.1024L42.7947 44.7236C42.922 44.9762 42.922 45.2888 42.922 45.5414Z" fill="#25974F"/>
<path d="M41.9698 46.4197C41.5273 46.546 41.1454 46.3596 40.6968 46.3596C40.7575 46.0409 41.1393 46.0409 41.2666 45.8545C41.5818 45.9146 41.7758 46.2333 41.9637 46.4197H41.9698Z" fill="#25974F"/>
<path d="M54.5607 54.4946C54.6879 55.5048 54.6213 56.7014 54.6213 57.7115C54.0515 56.2624 53.5423 54.7472 53.0938 53.2319L54.5546 54.4946H54.5607Z" fill="#25974F"/>
<path d="M57.4213 55.3123C56.6575 56.0699 55.9604 57.0139 55.13 57.7716C55.7665 56.3225 56.4636 54.8673 57.2273 53.4844L57.4152 55.3123H57.4213Z" fill="#25974F"/>
<path d="M54.1778 57.8383C52.717 57.3332 51.3168 56.5154 49.9166 55.8841C50.4864 55.6315 51.2501 55.6315 51.8866 55.6917L54.1778 57.8383Z" fill="#25974F"/>
<path d="M53.8574 57.9642L50.4265 57.8981L49.2809 56.3828C50.8084 56.948 52.3298 57.393 53.8574 57.9582V57.9642Z" fill="#25974F"/>
<path d="M53.7967 58.2167C52.3965 58.848 50.8084 59.3531 49.2809 59.7921C49.978 59.287 50.1053 57.898 51.3176 58.2768C52.1419 58.343 52.9057 58.1506 53.7967 58.2167Z" fill="#25974F"/>
<path d="M57.4212 38.5367C57.106 39.4206 56.1483 40.1783 55.5785 40.996H55.4512L55.5785 38.0918C56.215 38.0918 56.8515 38.2181 57.4212 38.5307V38.5367Z" fill="#25974F"/>
<path d="M54.2384 41.6275V44.2792L50.1711 39.9259C50.359 39.4869 50.8682 39.3607 51.1894 39.042C52.2684 39.6733 53.2261 40.8098 54.2384 41.6275Z" fill="#25974F"/>
<path d="M59.4514 39.7994L59.3908 40.1782C58.0573 41.501 56.7176 43.0163 55.3235 44.279L55.4508 41.5672L58.2512 39.1079C58.6937 39.168 59.0756 39.4867 59.4575 39.7994H59.4514Z" fill="#25974F"/>
<path d="M54.3056 44.9101V47.6219L49.5351 42.7635C49.4078 42.1983 49.2805 41.3745 49.6624 40.9355H49.8503L54.2995 44.9101H54.3056Z" fill="#25974F"/>
<path d="M60.1555 42.7033C58.628 44.405 56.9126 46.0465 55.2578 47.6219L55.3184 44.9101L59.8948 40.9355C60.2767 41.3144 60.2767 42.1321 60.1494 42.7033H60.1555Z" fill="#25974F"/>
<path d="M66.1924 42.511L66.3863 46.1067C65.8772 46.7381 65.0528 47.4296 64.5436 48.0008C64.4769 46.233 64.6042 44.0924 64.6709 42.1382C65.1134 41.7594 65.562 42.2645 66.0711 42.1382L66.1984 42.517L66.1924 42.511Z" fill="#25974F"/>
<path d="M47.4378 43.6475V50.2677C46.5468 49.6364 46.2316 49.1313 45.4678 48.3135L45.9103 42.3247C46.6074 42.5111 47.1833 43.0162 47.4378 43.6475Z" fill="#25974F"/>
<path d="M64.1617 48.3796L62.1917 50.3338L62.2523 43.6475C62.4402 43.0823 63.0767 42.4509 63.7132 42.3848L64.1557 48.3796H64.1617Z" fill="#25974F"/>
<path d="M68.7988 43.4553C68.3563 44.2129 67.4653 44.9705 66.8288 45.6019C66.7682 44.5917 66.8894 43.5214 67.0834 42.5112C67.7199 42.6976 68.2896 43.0163 68.7988 43.4553Z" fill="#25974F"/>
<path d="M45.1465 47.9345L43.3038 46.0404L43.4311 44.1464L44.9586 42.6973C45.0859 44.4651 45.1465 46.1006 45.1465 47.9345Z" fill="#25974F"/>
<path d="M70.8961 46.1728C69.8778 46.3592 68.7322 46.4854 67.6532 46.5516C68.3503 45.8601 69.114 44.9762 69.8778 44.5312C70.3203 45.0363 70.7022 45.6015 70.8961 46.1728Z" fill="#25974F"/>
<path d="M54.3662 48.0611C54.3662 48.8788 54.4935 49.7026 54.4268 50.5865L54.2996 50.5264C52.8387 48.506 50.0383 47.1832 50.0383 44.5977C51.5658 45.6078 52.8993 46.9307 54.3602 48.0671L54.3662 48.0611Z" fill="#25974F"/>
<path d="M59.5792 44.6577C59.3913 47.3094 56.6575 48.6322 55.13 50.5864L55.1906 48.061C56.6515 46.9246 58.0517 45.728 59.5792 44.6577Z" fill="#25974F"/>
<path d="M49.4689 52.4747C48.8325 51.9696 48.196 51.3383 47.6868 50.6468L48.2566 45.2231C50.0387 47.0511 49.1477 50.0154 49.4629 52.4747H49.4689Z" fill="#25974F"/>
<path d="M61.8708 50.773C61.301 51.4043 60.6645 52.0357 60.0887 52.5408L60.2766 47.1773L61.2949 45.2832L61.3556 45.4696L61.8647 50.767L61.8708 50.773Z" fill="#25974F"/>
<path d="M44.3222 48.632L44.1343 48.7583L38.4122 48.5057C38.1576 48.2532 38.4122 47.9405 38.4122 47.688C39.3638 46.4914 41.2126 47.0566 42.5462 46.9304C43.1826 47.6218 43.6918 47.9405 44.3283 48.632H44.3222Z" fill="#25974F"/>
<path d="M71.1501 47.1773C71.1501 47.6824 71.4654 47.9951 71.3381 48.5002L70.8289 48.6926L65.2947 48.8189C65.8038 48.1875 66.5009 47.4299 67.2041 46.9248L71.1441 47.1773H71.1501Z" fill="#25974F"/>
<path d="M54.4323 51.1516C54.5596 51.9693 54.4929 52.9795 54.4929 53.8634L52.329 51.4041L51.5046 48.7524C52.5229 49.3838 53.4746 50.2677 54.4323 51.1516Z" fill="#25974F"/>
<path d="M58.0583 48.7583C57.8037 49.6422 57.5491 50.7125 57.1066 51.6625L55.0093 53.8693L55.07 51.1574C56.0883 50.3998 57.04 49.3897 58.0583 48.7583Z" fill="#25974F"/>
<path d="M46.7347 50.899L39.8063 50.8389C39.2365 50.5863 38.788 50.0211 38.7274 49.4499C40.764 49.3236 42.8613 49.1372 44.892 49.1372L46.7347 50.905V50.899Z" fill="#25974F"/>
<path d="M51.5724 51.7231C51.6997 52.7332 51.7603 53.8697 51.6997 54.8798C51.1299 54.4409 50.4267 53.557 49.8569 52.9257L50.2388 49.1436L51.5724 51.7291V51.7231Z" fill="#25974F"/>
<path d="M70.8956 49.5102C70.9562 50.2016 70.1985 50.7067 69.6227 51.0254H62.8822C63.3914 50.3339 64.2157 49.7026 64.7916 49.1313L70.8956 49.5102Z" fill="#25974F"/>
<path d="M59.7065 52.9794C59.1367 53.6709 58.4335 54.3022 57.8637 54.9336C57.6758 52.787 58.2456 50.8328 59.3246 49.1973C59.5125 50.3938 59.6398 51.7227 59.7065 52.9794Z" fill="#25974F"/>
<path d="M48.9653 53.0457C46.5468 52.6067 43.3705 53.6109 41.6551 51.7228C43.5645 51.5966 45.4072 51.2839 47.3166 51.344C47.8864 52.0355 48.5228 52.288 48.9714 53.0457H48.9653Z" fill="#25974F"/>
<path d="M67.9745 51.8493C66.1924 53.8035 62.9494 52.6671 60.5975 53.0459L62.3796 51.3442L67.9745 51.8493Z" fill="#25974F"/>
<path d="M38.788 52.8532C40.3761 54.4285 42.0916 56.0099 43.5585 57.6454L40.8247 57.5793L36.818 53.0396C37.3272 52.5345 38.1515 52.787 38.788 52.8532Z" fill="#25974F"/>
<path d="M72.7449 53.0455V53.3582L68.8049 57.6454C67.9139 57.7716 66.8955 57.7115 66.0045 57.7115L70.8355 52.9794C71.4053 52.7268 72.1691 52.7268 72.7449 53.0395V53.0455Z" fill="#25974F"/>
<path d="M56.4631 53.2983C56.0812 54.7474 55.3841 56.2026 54.9356 57.7118C54.8083 56.6415 54.8749 55.4389 54.9962 54.3686C55.5053 54.056 55.9478 53.5509 56.457 53.2983H56.4631Z" fill="#25974F"/>
<path d="M51.3774 55.1863C49.2801 55.3126 47.2434 54.9338 45.5886 53.7973V53.6711L49.2741 53.3584C50.0378 53.8635 50.6743 54.4948 51.3714 55.1863H51.3774Z" fill="#25974F"/>
<path d="M46.6074 57.7117L44.0616 57.6455L40.564 53.4185H40.6246C43.1705 53.5447 44.692 56.1303 46.6014 57.7056L46.6074 57.7117Z" fill="#25974F"/>
<path d="M61.4224 55.126C60.4041 55.2522 59.2584 55.3124 58.2462 55.2522C58.6886 54.681 59.5191 53.9895 60.1556 53.4243L64.035 53.8031L61.4285 55.126H61.4224Z" fill="#25974F"/>
<path d="M36.1213 53.5507C37.4549 54.9397 38.9824 56.0761 40.1887 57.5252L37.5822 57.4651L34.9757 54.5608C35.2303 54.182 35.4849 53.3643 36.1213 53.5507Z" fill="#25974F"/>
<path d="M54.4329 57.7779L52.1416 55.3186L52.3295 53.4907C53.0933 54.8136 53.7903 56.3288 54.4268 57.7779H54.4329Z" fill="#25974F"/>
<path d="M65.4953 57.7776L62.9494 57.8377C64.9861 56.2623 66.3196 53.5505 69.0534 53.4844L65.4953 57.7716V57.7776Z" fill="#25974F"/>
<path d="M74.6487 54.621L72.0422 57.5854H69.3084L73.697 53.6108C74.2062 53.7371 74.3335 54.3023 74.6487 54.621Z" fill="#25974F"/>
<path d="M47.5656 55.6915C48.3293 56.3229 49.2204 57.2068 49.8569 57.8982L47.0564 57.772L44.7045 54.8076L47.5656 55.6915Z" fill="#25974F"/>
<path d="M62.4397 57.8377L59.6393 57.964L59.6999 57.7776L62.1185 55.6971C63.0095 55.4446 63.9612 55.1319 64.8522 54.8794L62.4337 57.8437L62.4397 57.8377Z" fill="#25974F"/>
<path d="M36.9453 57.399H34.0175C34.0175 56.7075 34.1448 56.01 34.46 55.4448C35.4117 55.9499 36.1754 56.7677 36.9392 57.399H36.9453Z" fill="#25974F"/>
<path d="M75.606 57.459L72.6782 57.5853V57.459L75.0301 55.5649C75.4726 56.0039 75.5999 56.7615 75.5999 57.459H75.606Z" fill="#25974F"/>
<path d="M59.5792 55.8838C58.179 56.5152 56.8454 57.3329 55.3846 57.838L57.6759 55.6914C58.3123 55.7575 59.0094 55.7575 59.5853 55.8838H59.5792Z" fill="#25974F"/>
<path d="M59.0094 57.964C57.9304 58.0241 56.7181 57.964 55.6392 57.964C57.1667 57.4589 58.6942 56.8275 60.2156 56.4487L59.0094 57.964Z" fill="#25974F"/>
<path d="M59.07 58.4033C59.3852 58.9084 60.0217 59.2872 60.149 59.8525C58.6881 59.3474 57.1606 58.8423 55.6998 58.2109L59.07 58.3973V58.4033Z" fill="#25974F"/>
<path d="M49.8508 58.343C48.5779 59.8583 46.8624 60.9947 44.8924 61.3735H44.7045C45.4016 60.3032 46.42 59.293 47.2504 58.4091C48.1414 58.4753 48.9658 58.2829 49.8569 58.349L49.8508 58.343Z" fill="#25974F"/>
<path d="M64.8593 61.3677C63.9076 61.1753 62.9499 60.9287 62.0588 60.5499L59.5797 58.4033L62.4407 58.5296L64.8593 61.3677Z" fill="#25974F"/>
<path d="M46.4801 58.5955C44.5101 60.1108 43.1766 62.6963 40.564 62.7564C41.643 61.3073 42.9826 59.7259 44.2495 58.4692H46.5407L46.4801 58.5955Z" fill="#25974F"/>
<path d="M43.559 58.5293C42.0981 60.0445 40.316 61.9326 38.6006 63.3216C38.0914 63.514 37.3944 63.4478 36.8852 63.1953V62.9428L40.8919 58.5293H43.565H43.559Z" fill="#25974F"/>
<path d="M68.9928 62.7564C66.3863 62.8165 64.9255 60.0445 62.9554 58.5293H65.4346L68.9928 62.7564Z" fill="#25974F"/>
<path d="M40.1887 58.5959C38.9824 60.045 37.3276 61.4339 35.9274 62.6305C35.4182 62.4441 35.1636 61.939 34.9757 61.4339L37.5822 58.656C38.3459 58.5898 39.3643 58.656 40.1887 58.5898V58.5959Z" fill="#25974F"/>
<path d="M68.7382 58.6555C70.1384 60.2309 71.5387 61.6198 72.7449 63.2614C72.3024 63.574 71.5387 63.6402 71.0295 63.4478C69.0595 61.8062 67.532 60.1647 66.0045 58.5894L68.7382 58.6555Z" fill="#25974F"/>
<path d="M34.5267 60.7422C34.0175 60.2371 34.1448 59.4193 34.0175 58.788C34.9692 58.6617 35.9875 58.7218 36.9453 58.7218L34.5267 60.7422Z" fill="#25974F"/>
<path d="M74.5881 61.6199C74.5275 62.0588 74.0789 62.5038 73.7637 62.7563C72.1756 61.4936 70.7147 60.1708 69.3145 58.7217L72.0483 58.7878L74.5941 61.6259L74.5881 61.6199Z" fill="#25974F"/>
<path d="M75.6055 58.9083C75.6661 59.5397 75.4782 60.2312 75.0963 60.8024L72.6171 58.8482L72.6777 58.7881L75.6055 58.9144V58.9083Z" fill="#25974F"/>
<path d="M1.21289 25.2722C1.21289 11.3162 12.6147 0 26.6897 0C40.7646 0 52.1664 11.3162 52.1664 25.2722C52.1664 39.2281 40.7586 50.5443 26.6897 50.5443C12.6208 50.5443 1.21289 39.2281 1.21289 25.2722Z" fill="#BA333D"/>
<path d="M47.3102 15.7114C50.7896 22.6082 49.8864 32.3791 45.316 38.5123C39.7817 46.2388 30.8288 49.4978 21.5607 47.706C13.3836 46.1727 5.91575 38.6987 4.24276 30.6534C2.05453 21.5199 5.52781 12.6448 12.8684 6.89653C19.4997 1.59316 30.7682 0.955799 37.9754 5.48951C41.97 7.78644 45.4433 11.6227 47.3102 15.7054V15.7114Z" fill="white"/>
<path d="M46.4195 16.5894C49.9776 24.4723 48.2016 34.5018 41.9703 40.5568C36.6907 45.9804 28.744 48.1871 21.1124 46.2991C13.8022 44.6575 6.93444 37.7187 5.4736 30.4671C3.37629 21.5139 6.87382 12.7411 14.2508 7.44379C20.3548 2.71165 30.6534 2.39898 37.2059 6.3735C41.1459 8.7065 44.6435 12.4946 46.4256 16.5894H46.4195Z" fill="#3A569B"/>
<path d="M31.2231 5.74211C31.0958 6.42157 30.9382 7.30546 30.7806 8.01498C29.9563 7.63617 28.162 7.30546 28.0469 7.71434C27.8589 8.37575 29.3804 8.18935 30.2411 8.78463C30.72 9.12135 31.308 9.73467 31.3565 10.3901C31.4535 11.7129 30.9746 12.9936 29.829 13.5589C27.9196 14.3165 25.6344 13.8715 24.0402 12.8674L24.2281 10.2818C25.2464 10.9733 26.3254 11.6708 27.5983 11.4183C27.7862 11.292 27.8529 11.1838 27.7862 10.9312C26.6406 10.2999 24.9858 10.2879 24.5433 8.7726C24.2887 7.82858 24.4827 6.75228 25.0524 5.99465C26.1314 4.92436 27.4043 4.71992 28.8652 4.96645C29.5804 5.09272 30.6473 5.3633 31.2171 5.74211H31.2231Z" fill="white"/>
<path d="M24.1013 5.11084C22.8951 5.29724 21.5555 5.48965 20.3492 5.80232C20.2886 6.62007 20.2522 7.49194 20.1916 8.30969C19.5551 7.80461 19.0763 7.20332 18.3792 6.55994L14.9483 8.38786C16.4092 9.7107 18.1913 10.6607 19.7794 11.9174L20.7311 14.3166L20.6705 14.4428L17.1729 13.12C17.1729 12.4285 17.1123 11.6709 16.7304 11.0997C16.1607 10.2819 15.2029 9.5243 13.93 9.7107C11.4508 10.4022 10.3052 13.114 8.77766 14.9479L15.2635 19.9326C14.6271 19.8063 13.9906 19.4275 13.3542 19.175L12.9117 20.7504C12.5298 21.508 11.8327 22.0131 10.9416 22.0131C10.4325 21.9529 9.9233 21.7004 9.6081 21.1953C9.03831 20.1851 9.6081 18.8623 10.3052 17.9784C9.48081 17.5996 8.71705 17.1607 7.88661 16.9081C6.80765 18.231 6.10451 19.7462 6.3591 21.514C6.54701 23.0292 7.94723 24.4182 9.34745 24.9834C10.681 25.4885 12.3358 25.1698 13.4814 24.5445C14.9423 23.6606 15.5181 22.0191 15.5181 20.3836C15.8697 19.9867 16.8214 18.6338 17.6821 17.6718C16.985 17.0404 16.0273 16.5353 15.3908 15.7777C16.4092 15.9641 17.3608 16.5353 18.3792 16.7879C20.0946 15.3989 22.0646 14.515 23.974 13.7634L22.8951 10.799L24.1013 5.12287V5.11084Z" fill="white"/>
<mask id="mask0_2656_8178" style="mask-type:luminance" maskUnits="userSpaceOnUse" x="6" y="5" width="19" height="21">
<path d="M24.1013 5.11084C22.8951 5.29724 21.5555 5.48965 20.3492 5.80232C20.2886 6.62007 20.2522 7.49194 20.1916 8.30969C19.5551 7.80461 19.0763 7.20332 18.3792 6.55994L14.9483 8.38786C16.4092 9.7107 18.1913 10.6607 19.7794 11.9174L20.7311 14.3166L20.6705 14.4428L17.1729 13.12C17.1729 12.4285 17.1123 11.6709 16.7304 11.0997C16.1607 10.2819 15.2029 9.5243 13.93 9.7107C11.4508 10.4022 10.3052 13.114 8.77766 14.9479L15.2635 19.9326C14.6271 19.8063 13.9906 19.4275 13.3542 19.175L12.9117 20.7504C12.5298 21.508 11.8327 22.0131 10.9416 22.0131C10.4325 21.9529 9.9233 21.7004 9.6081 21.1953C9.03831 20.1851 9.6081 18.8623 10.3052 17.9784C9.48081 17.5996 8.71705 17.1607 7.88661 16.9081C6.80765 18.231 6.10451 19.7462 6.3591 21.514C6.54701 23.0292 7.94723 24.4182 9.34745 24.9834C10.681 25.4885 12.3358 25.1698 13.4814 24.5445C14.9423 23.6606 15.5181 22.0191 15.5181 20.3836C15.8697 19.9867 16.8214 18.6338 17.6821 17.6718C16.985 17.0404 16.0273 16.5353 15.3908 15.7777C16.4092 15.9641 17.3608 16.5353 18.3792 16.7879C20.0946 15.3989 22.0646 14.515 23.974 13.7634L22.8951 10.799L24.1013 5.12287V5.11084Z" fill="white"/>
</mask>
<g mask="url(#mask0_2656_8178)">
<path d="M13.8027 14.6354L12.5964 13.6914C12.7843 13.4569 13.0389 13.0601 13.3602 12.8737C13.8027 12.8135 14.0573 12.9999 14.3119 13.2525C14.4998 13.8177 14.2512 14.2626 13.8027 14.6414V14.6354Z" fill="#3A569B"/>
</g>
<path d="M40.9525 23.5284C43.0498 23.2759 45.1471 22.9632 47.1837 22.7107L46.5473 19.4938C44.256 19.8065 41.9708 20.4378 39.7462 20.7565C41.2737 18.8023 42.9891 16.9083 44.45 14.9541C44.45 14.9541 43.6741 13.6853 43.1164 12.9217C42.5588 12.1641 41.5889 11.0457 41.5889 11.0457L34.4666 14.3889L34.0241 14.6234C34.6605 13.2344 35.5516 11.6109 36.1881 10.2881C36.8548 10.5586 37.5216 11.0577 38.0975 11.3103C38.4793 10.6188 38.9885 9.83109 39.3037 9.07347C37.2064 7.68449 34.9151 6.50596 32.6299 5.62207C32.1874 6.37969 31.8965 7.21548 31.551 7.95507L33.2058 8.77282C32.442 10.6669 31.4903 12.4948 30.6599 14.3227C32.1874 15.1405 33.8362 15.838 35.1091 17.1608L36.7639 16.4032L38.0975 18.1048L36.8912 19.3675C36.8912 19.3675 37.7883 21.1113 38.0975 22.3138C38.5096 23.8952 38.4127 26.4928 38.4127 26.4928H41.0858C41.1828 25.9095 41.0252 24.0816 40.9585 23.5284H40.9525Z" fill="white"/>
<mask id="mask1_2656_8178" style="mask-type:luminance" maskUnits="userSpaceOnUse" x="30" y="5" width="18" height="22">
<path d="M40.9525 23.5284C43.0498 23.2759 45.1471 22.9632 47.1837 22.7107L46.5473 19.4938C44.256 19.8065 41.9708 20.4378 39.7462 20.7565C41.2737 18.8023 42.9891 16.9083 44.45 14.9541C44.45 14.9541 43.6741 13.6853 43.1164 12.9217C42.5588 12.1641 41.5889 11.0457 41.5889 11.0457L34.4666 14.3889L34.0241 14.6234C34.6605 13.2344 35.5516 11.6109 36.1881 10.2881C36.8548 10.5586 37.5216 11.0577 38.0975 11.3103C38.4793 10.6188 38.9885 9.83109 39.3037 9.07347C37.2064 7.68449 34.9151 6.50596 32.6299 5.62207C32.1874 6.37969 31.8965 7.21548 31.551 7.95507L33.2058 8.77282C32.442 10.6669 31.4903 12.4948 30.6599 14.3227C32.1874 15.1405 33.8362 15.838 35.1091 17.1608L36.7639 16.4032L38.0975 18.1048L36.8912 19.3675C36.8912 19.3675 37.7883 21.1113 38.0975 22.3138C38.5096 23.8952 38.4127 26.4928 38.4127 26.4928H41.0858C41.1828 25.9095 41.0252 24.0816 40.9585 23.5284H40.9525Z" fill="white"/>
</mask>
<g mask="url(#mask1_2656_8178)">
<path d="M38.9152 15.519C39.6123 15.1402 40.3154 14.7614 41.0792 14.4487C40.6367 15.062 40.0306 15.7235 39.5214 16.3548C39.3638 16.1684 39.1092 15.8497 38.9152 15.519Z" fill="#3A569B"/>
</g>
<path d="M16.5969 31.285C16.8515 31.8502 17.1667 32.4215 17.2334 33.0528L19.7793 35.007C18.8276 36.7086 17.5547 38.284 16.5363 39.9255C16.3484 40.3043 16.5363 40.6832 16.9182 40.8094C17.8093 40.623 18.0638 39.5467 18.573 38.9154L20.6703 35.5542C21.5614 35.963 22.3857 36.39 23.3435 36.8289C21.7856 39.4625 20.7976 44.5374 16.9243 43.4491C15.4634 42.8177 13.4267 41.8076 13.2388 39.9796C13.2995 37.5204 15.3664 35.8308 16.7364 33.9848C16.3242 34.2193 15.9726 34.4718 15.4634 34.6763C15.3361 33.7924 14.5663 32.3313 14.1905 32.4034C13.3298 32.5778 14.3784 33.8525 14.3784 34.6101C14.5663 35.3678 14.439 36.1855 13.9965 36.8169C13.2995 37.8872 12.0265 37.9533 10.8809 37.7008C8.40171 37.0694 7.82586 34.4237 7.38336 32.4034C8.05013 32.0426 8.71691 31.6939 9.48066 31.3331C9.66857 32.5297 9.86254 33.7924 10.8809 34.6763C11.1355 34.7364 11.3598 34.5981 11.3901 34.3636C10.8203 33.1671 10.1838 31.4594 11.0749 30.2027C11.9659 29.3849 13.1722 29.0663 14.3784 29.3849C15.3301 29.6976 16.0332 30.3951 16.603 31.279L16.5969 31.285Z" fill="white"/>
<path d="M45.7221 33.4318C44.7037 33.053 43.6854 32.8004 42.7337 32.4216C42.7943 31.7903 42.6064 31.1589 42.4185 30.6538C41.976 29.8361 41.1456 29.3911 40.3818 29.1386C37.1389 28.7598 36.6297 32.3555 34.5324 34.0571L41.2729 39.7994L43.4369 37.274C42.6731 36.5825 41.5941 35.9331 40.9577 35.3319C41.976 35.6806 43.055 36.0113 44.0733 36.3901C44.6431 35.38 45.219 34.4359 45.7281 33.4258L45.7221 33.4318Z" fill="white"/>
<mask id="mask2_2656_8178" style="mask-type:luminance" maskUnits="userSpaceOnUse" x="34" y="29" width="12" height="11">
<path d="M45.7221 33.4318C44.7037 33.053 43.6854 32.8004 42.7337 32.4216C42.7943 31.7903 42.6064 31.1589 42.4185 30.6538C41.976 29.8361 41.1456 29.3911 40.3818 29.1386C37.1389 28.7598 36.6297 32.3555 34.5324 34.0571L41.2729 39.7994L43.4369 37.274C42.6731 36.5825 41.5941 35.9331 40.9577 35.3319C41.976 35.6806 43.055 36.0113 44.0733 36.3901C44.6431 35.38 45.219 34.4359 45.7281 33.4258L45.7221 33.4318Z" fill="white"/>
</mask>
<g mask="url(#mask2_2656_8178)">
<path d="M39.551 34.057C39.0418 33.7443 38.5993 33.4256 38.2174 33.0468C38.4053 32.7342 38.7266 32.2892 39.1085 32.2291C39.551 32.1689 39.9328 32.5417 40.0601 32.9206C40.0601 33.3595 39.7449 33.6782 39.551 34.057Z" fill="#3A569B"/>
</g>
<path d="M29.2535 37.466L29.5687 39.6727C28.4898 39.2338 26.835 39.1075 25.8166 39.799C25.3074 40.2379 25.0529 40.8092 24.9256 41.3744C24.8649 41.9396 25.0529 42.3845 25.3074 42.7633C25.7499 43.2023 26.2591 43.3947 26.8956 43.2023C27.0835 43.1422 27.2774 42.8896 27.4047 42.6972V42.2583L26.2591 42.2763L26.1985 40.749H29.8233C29.9203 41.4886 30.187 42.9437 30.2658 43.5691C30.2658 43.5691 29.8233 44.6273 29.1202 45.0362C27.9139 46.0464 26.0045 46.0464 24.5437 45.6676C23.4647 45.3549 22.3797 44.3447 22.0645 43.2083C21.6826 41.7592 21.8099 39.9313 22.7616 38.6686C24.2224 36.7745 27.2108 36.3957 29.2475 37.472L29.2535 37.466Z" fill="white"/>
<path d="M34.0175 34.562C34.0175 34.562 32.7506 35.3798 31.8899 35.8067C31.0958 36.2035 29.7926 36.6906 29.7926 36.6906C30.3018 39.5287 30.8109 42.3367 31.3504 45.0966C32.4294 44.7779 33.575 44.5254 34.5934 44.0864L33.8963 41.9579C34.6903 41.6091 35.2298 41.3145 35.8057 40.9357L37.3332 42.7636L40.1336 40.8094C38.2242 38.6628 35.939 36.3959 34.0296 34.568L34.0175 34.562Z" fill="white"/>
<mask id="mask3_2656_8178" style="mask-type:luminance" maskUnits="userSpaceOnUse" x="29" y="34" width="12" height="12">
<path d="M34.0175 34.562C34.0175 34.562 32.7506 35.3798 31.8899 35.8067C31.0958 36.2035 29.7926 36.6906 29.7926 36.6906C30.3018 39.5287 30.8109 42.3367 31.3504 45.0966C32.4294 44.7779 33.575 44.5254 34.5934 44.0864L33.8963 41.9579C34.6903 41.6091 35.2298 41.3145 35.8057 40.9357L37.3332 42.7636L40.1336 40.8094C38.2242 38.6628 35.939 36.3959 34.0296 34.568L34.0175 34.562Z" fill="white"/>
</mask>
<g mask="url(#mask3_2656_8178)">
<path d="M33.5144 39.7992L32.8173 37.5264C33.3568 38.1397 33.9327 38.8973 34.3448 39.4204L33.5205 39.7992H33.5144Z" fill="#3A569B"/>
</g>
<path d="M15.7298 25.4647C15.7298 19.6141 20.5124 14.876 26.4042 14.876C32.2961 14.876 37.0786 19.6201 37.0786 25.4647C37.0786 31.3092 32.3021 36.0534 26.4042 36.0534C20.5063 36.0534 15.7298 31.3092 15.7298 25.4647Z" fill="white"/>
<path d="M34.9392 20.8464C33.9391 18.8561 31.8054 17.1184 29.6778 16.3728C25.859 15.0079 21.6583 16.1864 18.967 19.2289C17.0273 21.7123 16.0877 25.3801 17.2758 28.5489C18.276 31.7778 21.5371 34.4536 24.7922 35.0128C28.6776 35.572 32.1206 34.0206 34.3755 30.9721C36.3819 28.2362 36.6304 23.8288 34.9392 20.8464Z" fill="#BA333D"/>
<path d="M8.74725 27.9121C8.74725 27.2567 9.28067 26.7275 9.94138 26.7275C10.6021 26.7275 11.1355 27.2567 11.1355 27.9121C11.1355 28.5675 10.6021 29.0966 9.94138 29.0966C9.28067 29.0966 8.74725 28.5675 8.74725 27.9121Z" fill="white"/>
<path d="M42.0315 27.9421C42.0315 27.2687 42.577 26.7275 43.2559 26.7275C43.9348 26.7275 44.4804 27.2687 44.4804 27.9421C44.4804 28.6156 43.9348 29.1567 43.2559 29.1567C42.577 29.1567 42.0315 28.6156 42.0315 27.9421Z" fill="white"/>
<path d="M33.0961 27.9421C32.2778 30.1909 29.9502 32.0609 27.5559 32.4397C24.9736 32.8125 22.646 31.8144 21.07 30.0646C19.4334 28.2547 18.9303 25.3806 19.7486 23.0115C20.5063 20.6364 23.1491 18.7003 25.604 18.4537C28.1196 18.2673 30.326 19.0791 31.9626 21.0152C33.4113 22.8912 33.8538 25.6331 33.0961 27.9481V27.9421Z" fill="white"/>
<path d="M60.2156 61.1152V62.1254L54.8087 78.1437L54.7481 78.2038L49.2806 61.9329C49.1533 61.3016 49.4079 60.7965 49.7231 60.3576C52.0749 58.4635 55.8877 58.4034 58.6275 59.5999C59.1973 59.9126 60.0277 60.3576 60.2156 61.1152Z" fill="#F3E531"/>
</g>
<defs>
<clipPath id="clip0_2656_8178">
<rect width="238.177" height="84" fill="white"/>
</clipPath>
</defs>
</svg>
