<?xml version="1.0" encoding="UTF-8" standalone="no"?>
<!-- Created with Inkscape (http://www.inkscape.org/) -->
<svg
   xmlns:svg="http://www.w3.org/2000/svg"
   xmlns="http://www.w3.org/2000/svg"
   version="1.0"
   width="500"
   height="500"
   id="svg1901">
  <defs
     id="defs1903" />
  <g
     transform="translate(-255.41846,-42.657992)"
     id="layer1"
     style="opacity:1">
    <g
       transform="matrix(1.573641,0,0,1.573641,-1083.8591,-196.65807)"
       id="g3981">
      <path
         d="M 568.74628,399.55112 A 198.52536,198.52536 0 1 1 171.69556,399.55112 A 198.52536,198.52536 0 1 1 568.74628,399.55112 z"
         transform="matrix(0.8002365,0,0,0.8002365,713.67226,-8.7902207)"
         id="path3322"
         style="fill:#002673;fill-opacity:1;fill-rule:evenodd;stroke:none;stroke-width:1.24713254;stroke-linecap:round;stroke-linejoin:round;marker:none;marker-start:none;marker-mid:none;marker-end:none;stroke-miterlimit:4;stroke-dasharray:none;stroke-dashoffset:0;stroke-opacity:1;visibility:visible;display:inline;overflow:visible;enable-background:accumulate" />
      <path
         d="M 561.96057,399.55112 A 191.73965,191.73965 0 1 1 178.48126,399.55112 A 191.73965,191.73965 0 1 1 561.96057,399.55112 z"
         transform="matrix(0.8002365,0,0,0.8002365,713.67226,-8.7902207)"
         id="path3324"
         style="fill:#ffffff;fill-opacity:1;fill-rule:evenodd;stroke:none;stroke-width:1.24713254;stroke-linecap:round;stroke-linejoin:round;marker:none;marker-start:none;marker-mid:none;marker-end:none;stroke-miterlimit:4;stroke-dasharray:none;stroke-dashoffset:0;stroke-opacity:1;visibility:visible;display:inline;overflow:visible;enable-background:accumulate" />
      <path
         d="M 553.032,399.55112 A 182.81108,182.81108 0 1 1 187.40984,399.55112 A 182.81108,182.81108 0 1 1 553.032,399.55112 z"
         transform="matrix(0.8002365,0,0,0.8002365,713.67226,-8.7902207)"
         id="path3326"
         style="fill:#002673;fill-opacity:1;fill-rule:evenodd;stroke:none;stroke-width:1.24713254;stroke-linecap:round;stroke-linejoin:round;marker:none;marker-start:none;marker-mid:none;marker-end:none;stroke-miterlimit:4;stroke-dasharray:none;stroke-dashoffset:0;stroke-opacity:1;visibility:visible;display:inline;overflow:visible;enable-background:accumulate" />
      <path
         d="M 547.3177,399.55112 A 177.09679,177.09679 0 1 1 193.12413,399.55112 A 177.09679,177.09679 0 1 1 547.3177,399.55112 z"
         transform="matrix(0.8002365,0,0,0.8002365,713.67226,-8.7902207)"
         id="path3328"
         style="fill:#ffffff;fill-opacity:1;fill-rule:evenodd;stroke:none;stroke-width:1.24713254;stroke-linecap:round;stroke-linejoin:round;marker:none;marker-start:none;marker-mid:none;marker-end:none;stroke-miterlimit:4;stroke-dasharray:none;stroke-dashoffset:0;stroke-opacity:1;visibility:visible;display:inline;overflow:visible;enable-background:accumulate" />
      <path
         d="M 1069.1206,264.14693 L 1065.3119,264.52279 L 1071.3256,271.16302 C 1070.8149,271.38964 1070.477,271.54479 1070.1479,271.7644 L 1070.1479,273.39314 C 1065.9215,273.70262 1061.4322,274.75473 1056.0907,277.47751 C 1054.5869,278.24404 1053.8389,279.5583 1056.5167,280.18372 C 1065.0677,282.18086 1077.3402,282.34462 1087.6631,281.83751 L 1089.0413,282.1382 C 1088.5657,282.31504 1088.2657,282.49413 1087.9638,282.68946 L 1087.9638,284.64395 C 1089.6376,285.6362 1092.7014,285.84654 1095.3808,285.64625 L 1095.3808,287.5005 C 1098.2499,289.2014 1105.2181,288.69729 1107.3082,287.52556 C 1108.0758,287.09521 1108.347,286.63927 1108.4608,286.17245 L 1122.0169,289.00395 L 1124.5979,286.69866 L 1105.0029,281.01061 L 1110.6408,280.83521 L 1119.5112,279.00601 L 1124.0466,280.73498 L 1125.6252,279.18142 L 1123.345,277.6028 L 1123.8461,274.92165 L 1127.5546,269.73475 C 1128.4809,268.44337 1128.0683,267.03778 1126.6275,267.02854 L 1121.0397,266.97842 L 1122.0169,268.2313 C 1122.2992,268.59723 1122.2624,268.89679 1121.9167,269.2336 L 1117.0556,273.96946 L 1115.4018,272.66647 L 1111.7183,272.99222 L 1112.6956,274.16992 L 1084.4307,273.51843 L 1084.0799,273.31797 C 1083.2826,272.00827 1081.6869,271.04958 1080.0707,270.86233 L 1069.1206,264.14693 z"
         id="path2473"
         style="fill:#002673;fill-opacity:1;fill-rule:evenodd;stroke:none;stroke-width:0.25;stroke-linecap:butt;stroke-linejoin:miter;stroke-miterlimit:4;stroke-dasharray:none;stroke-opacity:1" />
      <path
         d="M 280.35714,360.04074 A 21.607143,21.607143 0 1 1 237.14286,360.04074 A 21.607143,21.607143 0 1 1 280.35714,360.04074 z"
         transform="matrix(0.8018394,0,0,0.8018394,712.93565,-11.578436)"
         id="path3308"
         style="fill:#f5dc0f;fill-opacity:1;fill-rule:evenodd;stroke:none;stroke-width:0.25;stroke-linecap:round;stroke-linejoin:round;marker:none;marker-start:none;marker-mid:none;marker-end:none;stroke-miterlimit:4;stroke-dasharray:none;stroke-dashoffset:0;stroke-opacity:1;visibility:visible;display:inline;overflow:visible;enable-background:accumulate" />
      <path
         d="M 981.99573,245.32876 L 981.92056,253.29704 L 969.19136,253.29704 C 965.7094,253.29704 962.61645,258.70781 962.55112,261.84164 C 962.50156,264.21926 963.68929,267.54366 968.41457,267.45452 L 981.79527,267.20394 L 981.79527,269.10831 L 974.25297,269.30877 C 972.15143,269.36232 970.45017,270.40499 969.14124,273.04233 C 946.67433,294.26124 924.506,317.32753 904.74351,340.52213 L 904.59317,340.47202 C 903.3908,340.08348 902.98501,341.56863 903.99179,341.90029 L 922.88513,348.13961 L 922.88513,349.86857 C 922.88513,351.08431 923.66535,351.26336 924.38858,351.42214 L 957.06353,361.87111 L 957.06353,362.94858 L 952.12721,362.94858 L 953.12951,368.76191 C 953.49106,370.85377 954.22655,372.92669 956.41204,374.55019 L 961.42354,378.28376 C 962.73746,379.25983 964.083,380.06441 965.65825,383.14491 L 968.89067,389.43433 C 969.40365,390.4731 970.75659,391.4533 972.44883,390.43663 C 978.4122,386.85394 982.39713,385.38641 986.75665,385.04928 C 992.14459,384.6326 997.605,384.68992 1003.2445,386.37732 L 1016.124,390.21112 C 1022.9772,392.95026 1029.7427,393.17558 1036.2702,390.63709 L 1049.0245,385.67571 C 1054.7295,383.45708 1060.8804,383.15243 1066.8153,385.37502 C 1067.5221,385.63973 1068.3744,386.1566 1069.0454,385.07433 L 1071.2505,381.49111 C 1071.9438,380.37289 1072.589,379.96598 1074.6834,378.13341 L 1077.565,375.62766 C 1079.0321,374.34393 1079.6484,372.72557 1080.2712,370.69134 L 1081.3486,367.18329 C 1081.7323,365.93006 1082.4568,365.18831 1084.4307,363.82559 L 1088.7155,360.86881 C 1089.1258,360.5856 1089.367,360.39956 1089.367,360.06697 L 1089.367,358.18766 L 1087.9638,358.18766 L 1087.9638,357.31064 C 1087.9638,356.62865 1087.5285,356.65915 1087.2121,356.65915 L 1081.499,356.65915 L 1092.4992,331.5265 C 1092.8437,331.41259 1093.1692,331.15813 1093.3261,330.79983 C 1093.6194,330.13012 1093.2942,329.3641 1092.6245,329.07086 C 1092.4571,328.99755 1092.2698,328.94968 1092.0983,328.94557 C 1091.5837,328.93325 1091.0904,329.22007 1090.8705,329.72236 C 1090.7136,330.08066 1090.7205,330.46941 1090.8705,330.79983 L 1089.2417,334.55845 C 1086.6304,333.22797 1082.9961,332.19161 1075.7608,332.17799 C 1071.3821,332.16975 1067.4073,331.74227 1064.7355,330.02305 C 1060.2856,331.61144 1059.9453,334.45515 1059.3732,337.18949 C 1058.6096,340.83948 1057.3424,343.17943 1055.0383,344.05524 C 1054.8034,342.04289 1054.1536,339.83766 1053.0086,337.38995 C 1052.1931,335.64639 1051.5091,333.7814 1052.4323,332.10282 L 1053.2091,330.67454 C 1054.2723,328.74147 1053.7407,325.92914 1052.6328,323.73362 L 1057.5941,321.00235 C 1060.513,319.39485 1062.0688,315.50735 1061.9542,310.25269 C 1064.7249,309.09723 1066.6148,306.78557 1066.6148,304.18878 L 1066.6148,301.18189 C 1069.6673,301.22575 1071.9771,298.36239 1071.9771,295.36855 L 1071.9771,290.43223 C 1071.9771,289.04189 1072.0161,287.74679 1072.9043,286.92418 L 1071.6263,285.99705 L 1054.6875,307.5966 C 1046.8908,302.33374 1044.792,286.60988 1054.8879,267.20394 L 1047.2705,267.4044 L 1047.07,245.32876 L 1043.2613,245.32876 L 1043.0608,267.50463 L 1033.8898,267.75521 C 1022.6549,276.26178 1020.4952,292.19324 1025.2199,305.69223 C 1026.5253,309.42192 1029.0571,309.93739 1031.9102,310.32787 L 1042.71,310.02718 L 1042.284,358.1626 L 1024.3679,358.1626 L 1021.0603,360.86881 L 1009.6091,360.86881 L 1009.5339,358.18766 L 986.78171,358.18766 L 986.75665,354.65455 C 989.95141,355.33954 993.26797,354.78865 996.4539,353.72742 C 988.90637,344.30609 989.63232,340.66188 989.4378,336.38765 C 989.1871,328.37916 992.06734,323.18392 995.37642,318.92258 L 986.4309,319.17316 L 986.40585,316.74258 L 994.85022,316.51706 C 986.88174,301.28958 985.2834,286.0996 990.33987,270.88739 C 990.69574,269.81677 990.85009,268.88974 990.13941,268.90785 L 985.97987,269.00808 L 985.85458,253.97359 C 986.52787,253.70945 987.20479,253.4933 987.85918,253.29704 L 985.85458,253.29704 L 985.77941,245.32876 L 981.99573,245.32876 z M 1006.3767,251.99405 C 1002.4157,252.13364 999.89449,254.72272 998.28309,257.98279 C 995.93979,262.72362 1000.3945,266.72393 1005.2491,266.60256 L 1022.4385,266.15153 C 1016.2704,259.50426 1021.2263,255.16606 1025.8714,251.99405 L 1007.1785,251.99405 C 1006.9015,251.98096 1006.6407,251.98474 1006.3767,251.99405 z M 981.8955,255.92807 L 981.82033,266.2267 C 978.50328,265.05688 976.41371,264.0304 976.78377,261.79153 C 977.1448,259.60727 979.24918,257.54337 981.8955,255.92807 z M 1024.418,267.95567 L 1005.4746,268.43176 C 1001.8492,268.51899 1000.3119,268.30246 998.18286,271.66417 C 985.67079,291.42081 992.6964,309.81685 999.71137,316.41683 L 1029.9307,315.53982 C 1013.2366,304.13261 1017.6107,280.4766 1024.418,267.95567 z M 968.38952,274.87153 C 966.11125,280.67749 964.03433,286.82409 963.10239,294.31614 C 959.82193,298.07213 956.6925,301.88007 953.88123,305.79246 C 956.11643,291.27121 961.89111,281.30498 968.38952,274.87153 z M 962.60124,301.15683 C 962.53286,304.05885 962.61408,307.1471 962.92699,310.47821 C 963.27604,314.19429 964.02862,317.33316 968.31434,317.21867 L 981.36929,316.86787 L 981.34423,319.29844 L 972.524,319.54902 C 962.67846,321.86766 958.30084,328.13479 957.63986,333.45592 C 956.95037,339.00649 957.71077,344.53284 965.30745,345.55868 C 966.66503,345.742 967.24499,346.0869 967.66285,347.21248 C 968.83421,350.36774 970.64218,354.42708 978.68814,351.49731 C 979.44588,351.22139 980.10302,351.2465 981.04354,351.84811 L 980.99343,358.18766 L 974.5286,358.18766 L 974.5286,360.518 L 966.78584,360.518 C 951.58245,343.50614 951.05677,322.82936 962.60124,301.15683 z M 1053.0086,309.72649 L 1047.6964,316.49201 L 1047.6463,309.87683 L 1053.0086,309.72649 z M 1033.113,317.92028 L 1002.1419,318.77224 C 986.74178,330.99067 989.13534,345.96905 1008.6318,354.88007 C 1024.2613,360.27192 1032.3615,356.88944 1039.8033,352.54972 C 1025.9826,341.32513 1026.6597,329.37716 1033.113,317.92028 z M 1088.6153,335.96167 L 1082.4011,350.1442 C 1080.9936,344.26971 1082.7076,338.74118 1088.6153,335.96167 z M 926.59364,336.0619 C 928.35076,336.04777 930.11413,336.12796 931.88077,336.31247 C 929.83283,339.57735 927.65594,343.00812 925.01502,347.06213 L 905.89616,340.89799 C 912.15801,337.86638 919.29003,336.12063 926.59364,336.0619 z M 936.21571,344.85708 C 946.43681,344.50531 957.34495,352.53725 965.18216,360.518 L 963.12745,360.518 L 927.57088,349.01662 C 927.66382,348.60241 927.76375,348.06078 927.1449,347.76374 C 930.02472,345.85124 933.09291,344.96455 936.21571,344.85708 z M 1055.1385,345.50857 C 1057.2578,347.11599 1061.6417,347.57987 1067.9679,347.33777 C 1076.2725,347.01995 1079.7214,349.05194 1081.7997,351.54742 L 1079.5696,356.65915 L 1050.2022,356.65915 L 1050.2022,355.30605 C 1053.3903,352.75732 1055.201,349.58412 1055.1385,345.50857 z"
         id="path3171"
         style="fill:#f5dc0f;fill-opacity:1;fill-rule:evenodd;stroke:none;stroke-width:0.25;stroke-linecap:butt;stroke-linejoin:miter;stroke-miterlimit:4;stroke-dasharray:none;stroke-opacity:1" />
      <path
         d="M 989.88884,392.59158 C 979.30581,392.43841 969.84614,396.70454 963.90423,403.41641 L 968.11388,407.14997 C 974.46073,399.9807 986.3399,395.83881 999.13505,399.68284 L 1015.8233,404.69434 C 1024.8203,407.39727 1032.9944,408.67008 1041.407,404.91986 L 1053.2843,399.60767 C 1057.7677,397.60902 1064.2836,397.66676 1072.5535,401.58721 L 1074.959,396.5256 C 1065.6647,392.1195 1057.3624,391.66151 1051.004,394.49595 L 1039.1017,399.78307 C 1032.3113,402.81015 1026.0251,401.89008 1017.427,399.30698 L 1000.7638,394.29549 C 997.07037,393.18588 993.41651,392.64263 989.88884,392.59158 z"
         id="path3249"
         style="fill:#f5dc0f;fill-opacity:1;fill-rule:evenodd;stroke:none;stroke-width:7;stroke-linecap:butt;stroke-linejoin:miter;stroke-miterlimit:4;stroke-dasharray:none;stroke-opacity:1" />
      <path
         d="M 1009.9348,176.59609 C 996.7354,176.59609 986.02999,187.30151 986.02998,200.50093 C 986.02998,211.88964 994.00777,221.44847 1004.6727,223.8545 L 1004.6727,234.20324 L 920.4295,234.20324 L 905.44512,249.78899 L 1004.6727,249.78899 L 1004.6727,391.1633 C 1004.6727,406.90781 997.53717,414.78089 991.74309,418.90193 C 983.50751,424.75947 972.88797,425.91419 963.42814,421.8086 C 935.694,409.7719 915.64925,391.01048 902.31294,363.8757 C 911.85176,368.19309 922.14745,370.35576 932.58238,370.19019 C 910.09867,353.23954 890.17021,333.44937 879.0596,303.98832 C 878.93021,306.42653 878.88419,308.51266 878.88419,310.9543 C 878.88419,383.29323 937.59589,442.00491 1010.0351,442.00493 C 1082.4742,442.00493 1141.1859,383.29323 1141.1859,310.9543 C 1141.1859,308.51266 1141.1399,306.42653 1141.0105,303.98832 C 1129.8999,333.44937 1109.9714,353.23953 1087.4877,370.19019 C 1097.9226,370.35577 1108.2183,368.1931 1117.7572,363.8757 C 1104.4208,391.01047 1084.4012,409.77189 1056.667,421.8086 C 1047.2072,425.9142 1036.5877,424.75947 1028.3521,418.90193 C 1022.558,414.7809 1015.3974,406.9078 1015.3974,391.1633 L 1015.3974,249.78899 L 1114.4245,249.78899 L 1099.4401,234.20324 L 1015.3974,234.20324 L 1015.3974,223.80438 C 1025.961,221.32409 1033.8396,211.81773 1033.8397,200.50093 C 1033.8397,187.3015 1023.1342,176.5961 1009.9348,176.59609 z M 1009.9348,188.47333 C 1016.574,188.47333 1021.9624,193.8617 1021.9624,200.50093 C 1021.9624,207.14016 1016.5741,212.52852 1009.9348,212.52852 C 1003.2956,212.52852 997.90723,207.14016 997.90723,200.50093 C 997.90722,193.8617 1003.2956,188.47333 1009.9348,188.47333 z"
         id="path3279"
         style="fill:#002673;fill-opacity:1;fill-rule:evenodd;stroke:none;stroke-width:0.25;stroke-linecap:round;stroke-linejoin:round;marker:none;marker-start:none;marker-mid:none;marker-end:none;stroke-miterlimit:4;stroke-dasharray:none;stroke-dashoffset:0;stroke-opacity:1;visibility:visible;display:inline;overflow:visible;enable-background:accumulate" />
    </g>
  </g>
</svg>
