<svg xmlns="http://www.w3.org/2000/svg" viewBox="0 0 1143 200" role="img" aria-label="Mindset Consulting">
  <title>Mindset Consulting</title>
  <!-- I: clean rectangle in pixel coordinates -->
  <path fill="#0A1628" d="M229,3 H277 V196 H229 Z"/>
  <!-- M, N+D, S, E (main + middle arm), T: pixel-accurate Bezier paths from the brand asset.
       Original coords are in 11430x2000 space; transform scales and Y-flips into 1143x200. -->
  <g fill="#0A1628" transform="translate(0,200) scale(0.1,-0.1)">
    <path d="M678,1383 c169 -320 310 -578 313 -575 4 4 142 267 309 585 l302 577 179 0 179 0 0 -970 0 -970 -200 0 -200 0 -2 519 -3 520 -211 -397 -211 -397 -149 -3 -149 -2 -215 390 -215 390 -3 -510 -2 -510 -195 0 -195 0 0 970 0 970 181 -2 181 -3 306 -582z M3905,1380 l470 -585 3 588 2 587 484 0 c511 0 579 -4 725 -46 337 -97 548 -318 627 -659 26 -112 27 -394 1 -515 -82 -384 -369 -641 -782 -700 -38 -5 -132 -10 -207 -10 l-138 0 0 179 0 178 138 6 c158 6 223 21 338 77 186 91 284 274 284 530 0 325 -143 511 -439 572 -79 16 -140 20 -346 21 l-250 2 -3 -782 -2 -783 -173 0 -172 0 -472 591 -473 592 0 -592 0 -591 -215 0 -215 0 0 965 0 965 172 -2 173 -3 470 -585z M7356,1979 c171 -24 397 -103 473 -166 l24 -19 -67 -154 c-37 -85 -68 -156 -70 -158 -2 -1 -30 13 -62 31 -148 87 -285 127 -455 134 -112 5 -136 3 -199 -16 -147 -45 -223 -163 -176 -275 30 -71 143 -123 401 -182 418 -97 608 -210 671 -400 29 -91 27 -277 -5 -364 -75 -206 -265 -338 -552 -385 -122 -19 -374 -19 -504 0 -180 27 -365 88 -470 153 l-43 27 69 154 c38 85 70 155 72 157 1 2 43 -17 92 -41 195 -95 351 -129 565 -123 120 4 155 9 203 27 142 56 189 184 102 280 -58 64 -131 90 -495 176 -277 65 -455 171 -523 310 -63 127 -64 322 -2 460 82 185 285 324 538 370 90 16 310 19 413 4z M9530,1785 l0 -185 -455 0 -455 0 0 -600 0 -600 455 0 455 0 0 -185 0 -185 -680 0 -680 0 0 970 0 970 680 0 680 0 0 -185z M9420,970 l0 -170 -305 0 -305 0 0 170 0 170 305 0 305 0 0 -170z M11420,1785 l0 -185 -295 0 -295 0 0 -785 0 -785 -235 0 -235 0 0 785 0 785 -297 2 -298 3 -3 183 -2 182 830 0 830 0 0 -185z"/>
  </g>
</svg>
