<svg xmlns="http://www.w3.org/2000/svg" width="200" height="51.23" viewBox="0 0 200 51.23"><g transform="translate(0 0)"><path d="M29.4,29.467c.058-.2.171-.564.321-1.02H38.15l8.443-26.5H42.921l-2.876,8.856H24.665c-4.083,0-5.842,2.866-6.577,5.354-.067.2-.179.562-.329,1.014H9.331L.884,43.685H4.559L7.437,34.82H22.814c4.081,0,5.847-2.862,6.584-5.354M21.719,16.432a2.951,2.951,0,0,1,3.04-2.109h14.2l-3.431,10.61h-4.64c.562-1.7,1.075-3.218,1.075-3.218.72-2.56-.838-4.54-3.045-4.54H21.48c.114-.354.2-.61.239-.744m-1.4,4.261h8.253s-.7,2.113-1.407,4.24H18.912s.7-2.108,1.4-4.24M8.521,31.3l3.434-10.61H16.6c-.567,1.7-1.081,3.217-1.081,3.217-.715,2.566.836,4.537,3.048,4.537H26c-.114.358-.2.614-.239.745A2.947,2.947,0,0,1,22.718,31.3ZM5.72,24.23C3.54,19.874,4.14,13.37,6.758,9.387c5.421-8.248,15.155-8.367,23-4.9A24.473,24.473,0,0,1,33.282,6.3a26.524,26.524,0,0,0-4.324-2.928c-7.593-4.6-19.7-5.329-26.017,3.149-4.333,5.812-3.91,14.652,1.474,21.692ZM30.084,7.514c.8.464,2.252,1.467,2.953,1.99h2.781C32.8,7.448,27.788,4.67,22.837,4.56a26.779,26.779,0,0,1,7.248,2.954m12.981,9.9L41.758,21.4c2.179,4.353,1.581,10.86-1.037,14.841-5.42,8.247-15.16,8.368-23,4.908A25.3,25.3,0,0,1,14.2,39.327a26.289,26.289,0,0,0,4.323,2.931c7.591,4.589,19.7,5.332,26.021-3.154,4.331-5.8,3.908-14.653-1.476-21.695M17.395,38.116c-.8-.464-2.255-1.473-2.955-1.993H11.663c3.01,2.056,8.026,4.838,12.977,4.95a27.447,27.447,0,0,1-7.245-2.957" transform="translate(0 0)" fill="#439539"/><path d="M111.66,19.251h6.069c5.215,0,9.982,1.5,9.982,7.208,0,5.57-4.086,7.585-9.229,7.585H116.46V43.1h-4.8Zm4.8,11.033h1.679c2.4,0,4.562-.783,4.562-3.55s-2.093-3.724-4.562-3.724H116.46Z" transform="translate(-49.267 -8.494)" fill="#5a5b5e"/><path d="M145.348,30.116h4.084v4h.066c.206-1.639,2.094-4.409,4.837-4.409a4.954,4.954,0,0,1,1.4.139v4.61a4.711,4.711,0,0,0-2.057-.375c-3.734,0-3.734,4.646-3.734,7.175v6.457h-4.6Z" transform="translate(-64.131 -13.107)" fill="#5a5b5e"/><path d="M181.938,46.721a12.184,12.184,0,0,1-6.067,1.4c-5.832,0-9.225-3.35-9.225-9.122,0-5.091,2.706-9.295,8.194-9.295,6.549,0,8.4,4.479,8.4,10.626H171.032c.207,2.837,2.194,4.441,5.045,4.441A11.946,11.946,0,0,0,181.938,43Zm-3.087-9.53c-.137-2.222-1.163-4.136-3.737-4.136s-3.875,1.776-4.082,4.136Z" transform="translate(-73.528 -13.106)" fill="#5a5b5e"/><path d="M213.347,33.908a6.947,6.947,0,0,0-3.119-.649c-2.847,0-4.664,2.254-4.664,5.567,0,3.248,1.542,5.741,4.766,5.741a9.811,9.811,0,0,0,3.535-.817l.2,3.794a15.143,15.143,0,0,1-4.594.578c-5.792,0-8.709-3.928-8.709-9.3,0-5.091,3.018-9.122,8.536-9.122a14.967,14.967,0,0,1,4.458.583Z" transform="translate(-88.581 -13.106)" fill="#5a5b5e"/><path d="M230.219,16.863h4.6v4.375h-4.6Zm0,7.586h4.6V42.044h-4.6Z" transform="translate(-101.577 -7.44)" fill="#5a5b5e"/><path d="M256.692,33.8a11.3,11.3,0,0,0-4.113-.75c-1.235,0-2.707.443-2.707,1.946,0,2.8,7.988,1.026,7.988,7.382,0,4.1-3.671,5.739-7.406,5.739a20.638,20.638,0,0,1-5.213-.752l.275-3.758a10.145,10.145,0,0,0,4.527,1.16c1.166,0,3.019-.444,3.019-2.152,0-3.449-7.992-1.092-7.992-7.447,0-3.792,3.326-5.468,6.928-5.468a21.2,21.2,0,0,1,5,.65Z" transform="translate(-108.13 -13.106)" fill="#5a5b5e"/><path d="M274.523,16.863h4.6v4.375h-4.6Zm0,7.586h4.6V42.044h-4.6Z" transform="translate(-121.125 -7.44)" fill="#5a5b5e"/><path d="M298.6,29.7c5.248,0,9.261,3.521,9.261,9.329,0,5.057-3.395,9.088-9.261,9.088-5.825,0-9.223-4.031-9.223-9.088,0-5.807,4.014-9.329,9.223-9.329m0,14.863c3.531,0,4.458-3.142,4.458-6.081,0-2.7-1.441-5.227-4.458-5.227-2.982,0-4.421,2.6-4.421,5.227,0,2.905.922,6.081,4.421,6.081" transform="translate(-127.679 -13.106)" fill="#5a5b5e"/><path d="M328.895,30.116h4.356V32.51h.069a6.6,6.6,0,0,1,5.794-2.8c4.184,0,6,2.94,6,6.9v11.1h-4.6V38.316c0-2.152-.037-5.057-2.983-5.057-3.326,0-4.045,3.587-4.045,5.843v8.609h-4.6Z" transform="translate(-145.115 -13.107)" fill="#5a5b5e"/><path d="M111.545,73.03h2.8c3.141,0,5.916,1.057,5.916,5.124s-2.774,5.123-5.916,5.123h-2.8Zm2.055,8.632h1.145a3.511,3.511,0,0,0,0-7.017H113.6Z" transform="translate(-49.216 -32.222)" fill="#5a5b5e"/><path d="M138.073,73.03h2.217c2.2,0,4.83-.073,4.83,2.775A2.346,2.346,0,0,1,143,78.183v.029c.558.044.881.6,1.087,1.057l1.643,4.008h-2.29l-1.233-3.2c-.293-.763-.558-1.057-1.423-1.057h-.661v4.257h-2.055Zm2.055,4.375h.676c1.013,0,2.172-.148,2.172-1.424,0-1.233-1.145-1.335-2.172-1.335h-.676Z" transform="translate(-60.921 -32.222)" fill="#5a5b5e"/><rect width="2.056" height="10.247" transform="translate(90.523 40.808)" fill="#5a5b5e"/><path d="M177.5,73.03h2.055v8.632h3.978v1.615H177.5Z" transform="translate(-78.316 -32.222)" fill="#5a5b5e"/><path d="M198.486,73.03h2.055v8.632h3.978v1.615h-6.033Z" transform="translate(-87.576 -32.222)" fill="#5a5b5e"/><rect width="2.056" height="10.247" transform="translate(122.475 40.808)" fill="#5a5b5e"/><path d="M234.471,73.03H237l3.9,7.664h.03V73.03H242.9V83.277h-2.51l-3.919-7.663h-.029v7.663h-1.967Z" transform="translate(-103.453 -32.222)" fill="#5a5b5e"/><path d="M269.1,74.874a6.7,6.7,0,0,0-2.642-.543,3.489,3.489,0,0,0-3.714,3.714,3.376,3.376,0,0,0,3.48,3.655,5.568,5.568,0,0,0,1.35-.147V78.882h-2.173V77.267h4.139v5.52a12.932,12.932,0,0,1-3.317.529c-3.318,0-5.623-1.659-5.623-5.124,0-3.508,2.143-5.475,5.623-5.475a10.134,10.134,0,0,1,3.009.425Z" transform="translate(-114.984 -32.084)" fill="#5a5b5e"/></g></svg>