<svg width="190" height="28" viewBox="0 0 190 28" fill="none" xmlns="http://www.w3.org/2000/svg">
<path fill-rule="evenodd" clip-rule="evenodd" d="M3.58928 27.8998C2.04839 27.8998 0.7995 26.6509 0.7995 25.1117C0.7995 23.5691 2.04839 22.3184 3.58928 22.3184H28.6991C30.24 22.3184 31.4888 21.0713 31.4888 19.5304C31.4888 17.9895 30.24 16.7389 28.6991 16.7389H9.16884C4.54794 16.7389 0.7995 12.9922 0.7995 8.36777C0.7995 3.74687 4.54794 0.000189843 9.16884 0.000189843H32.8837C34.4246 0.000189843 35.6735 1.24732 35.6735 2.78821C35.6735 4.33086 34.4246 5.57799 32.8837 5.57799H9.16884C7.62795 5.57799 6.37906 6.82864 6.37906 8.36777C6.37906 9.91042 7.62795 11.1611 9.16884 11.1611H28.6991C33.32 11.1611 37.0684 14.906 37.0684 19.5304C37.0684 24.1513 33.32 27.8998 28.6991 27.8998H3.58928Z" fill="#FFFFFF"/>
<path fill-rule="evenodd" clip-rule="evenodd" d="M44.3386 2.78945C44.3386 1.24856 43.0897 0.00142382 41.5506 0.00142382C40.0079 0.00142382 38.759 1.24856 38.759 2.78945V22.3197C38.759 25.4014 41.2568 27.901 44.3386 27.901H65.2637C66.8046 27.901 68.0553 26.6503 68.0553 25.113C68.0553 23.5668 66.8046 22.3197 65.2637 22.3197H44.3386V2.78945Z" fill="#FFFFFF"/>
<path fill-rule="evenodd" clip-rule="evenodd" d="M75.0275 22.32H97.3458V5.58132H75.0275V22.32ZM102.924 25.1115C102.924 26.6507 101.675 27.8996 100.136 27.8996H72.2377C70.6969 27.8996 69.448 26.6507 69.448 25.1115V2.78978C69.448 1.24889 70.6969 0 72.2377 0H100.136C101.675 0 102.924 1.24889 102.924 2.78978V25.1115Z" fill="#FFFFFF"/>
<path fill-rule="evenodd" clip-rule="evenodd" d="M123.701 7.41473L109.246 26.799C108.359 27.9933 106.62 28.2765 105.358 27.4375C104.102 26.5949 103.803 24.945 104.692 23.7541L121.418 1.31099C121.925 0.630251 122.76 0.181705 123.707 0.181705C124.649 0.181705 125.481 0.623215 125.988 1.30043L142.727 23.7541C143.615 24.945 143.316 26.5949 142.056 27.4375C140.799 28.2765 139.057 27.9933 138.169 26.799L123.701 7.41473Z" fill="#FFFFFF"/>
<path fill-rule="evenodd" clip-rule="evenodd" d="M145.045 2.76744V25.2563C145.045 26.7145 146.293 27.9001 147.838 27.9001C149.375 27.9001 150.626 26.7145 150.626 25.2563V8.24674L174.988 27.0048C175.539 27.5272 176.265 27.9001 177.13 27.9001C178.671 27.9001 179.92 26.7145 179.92 25.2563V2.76744C179.92 1.30571 178.671 0.121899 177.13 0.121899C175.59 0.121899 174.341 1.30571 174.341 2.76744V19.7049L149.588 0.705888C149.108 0.343534 148.496 0.121899 147.838 0.121899C146.293 0.121899 145.045 1.30571 145.045 2.76744Z" fill="#FFFFFF"/>
<path fill-rule="evenodd" clip-rule="evenodd" d="M185.12 26.4204V25.0396H185.336L185.563 25.0537C185.723 25.0642 185.837 25.0853 185.913 25.1152C186.057 25.1698 186.154 25.2648 186.208 25.4037C186.237 25.4864 186.258 25.6447 186.272 25.8786C186.281 26.1161 186.3 26.2973 186.333 26.4204H187.315L187.29 26.3096C187.28 26.2709 187.274 26.234 187.271 26.1953C187.266 26.1566 187.266 26.1196 187.266 26.0809V25.7326C187.266 25.3316 187.148 25.0414 186.91 24.8584C186.782 24.7582 186.59 24.6825 186.339 24.6315C186.606 24.6034 186.835 24.5154 187.019 24.3677C187.204 24.2199 187.297 23.9824 187.297 23.6535C187.297 23.2225 187.123 22.9112 186.773 22.7177C186.571 22.6051 186.314 22.5401 186.003 22.5172C185.95 22.5137 185.681 22.5119 185.195 22.5119C184.711 22.5102 184.347 22.5084 184.105 22.5084V26.4204H185.12ZM186.286 23.7168C186.286 23.9332 186.217 24.0915 186.082 24.1882C185.948 24.2832 185.758 24.3342 185.519 24.3342H185.12V23.1838H185.369C185.623 23.1838 185.825 23.2102 185.967 23.2648C186.177 23.351 186.286 23.4987 186.286 23.7168ZM189.2 24.4662C189.2 23.4899 188.854 22.6561 188.163 21.9649C187.473 21.2736 186.639 20.927 185.665 20.927C184.731 20.927 183.923 21.2472 183.23 21.8875C182.495 22.5735 182.128 23.4319 182.128 24.4662C182.128 25.4582 182.467 26.2973 183.149 26.9798C183.828 27.6605 184.669 28 185.665 28C186.627 28 187.452 27.6658 188.138 27.0026C188.845 26.3131 189.2 25.467 189.2 24.4662ZM185.667 21.5568C186.469 21.5568 187.155 21.8505 187.723 22.4363C188.289 23.015 188.571 23.6957 188.571 24.4802C188.571 25.2876 188.286 25.9789 187.718 26.5576C187.153 27.1293 186.469 27.416 185.667 27.416C184.863 27.416 184.178 27.1328 183.61 26.5611C183.042 25.9895 182.755 25.2947 182.755 24.4802C182.755 23.6922 183.037 23.0115 183.598 22.4363C184.168 21.8505 184.857 21.5568 185.667 21.5568Z" fill="#FFFFFF"/>
<path fill-rule="evenodd" clip-rule="evenodd" d="M129.289 25.1276C130.828 25.1276 132.077 23.8805 132.077 22.3413C132.077 20.8005 130.828 19.5498 129.289 19.5498H118.13C116.587 19.5498 115.338 20.8005 115.338 22.3413C115.338 23.8805 116.587 25.1276 118.13 25.1276H129.289Z" fill="#7BC255"/>
</svg>
